<?xml version="1.0" encoding="UTF-8"?>
<!DOCTYPE svg PUBLIC "-//W3C//DTD SVG 1.1//EN" "http://www.w3.org/Graphics/SVG/1.1/DTD/svg11.dtd">
<!-- Creator: CorelDRAW 2018 (64-Bit) -->
<svg xmlns="http://www.w3.org/2000/svg" xml:space="preserve" width="200px" height="200px" version="1.1" style="shape-rendering:geometricPrecision; text-rendering:geometricPrecision; image-rendering:optimizeQuality; fill-rule:evenodd; clip-rule:evenodd"
viewBox="0 0 200 200"
 xmlns:xlink="http://www.w3.org/1999/xlink">
 <defs>
  <style type="text/css">
   <![CDATA[
    .str0 {stroke:#0098DA;stroke-width:3;stroke-miterlimit:2.61313}
    .fil1 {fill:#0098DA}
    .fil0 {fill:white}
   ]]>
  </style>
   <clipPath id="id0">
    <rect x="-92.06" y="-261.72" width="500.53" height="170.14"/>
   </clipPath>
 </defs>
 <g id="Layer_x0020_1">
  <metadata id="CorelCorpID_0Corel-Layer"/>
  <circle class="fil0 str0" cx="100" cy="100" r="98.46"/>
  <g id="_2323519334592">
   <g>
    <g>
     <path class="fil1" d="M283.04 86.45c-1.2,-0.52 -2.59,0.03 -3.11,1.22 -0.01,0.03 -0.02,0.06 -0.03,0.08 -0.5,1.21 0.08,2.58 1.28,3.08 0.3,0.12 0.6,0.18 0.9,0.18 0.92,0 1.8,-0.56 2.18,-1.47 0,0 0,-0.01 0.01,-0.02 0.49,-1.18 -0.05,-2.55 -1.23,-3.07z"/>
    </g>
   </g>
   <g>
    <g>
     <path class="fil1" d="M280.56 92.95c-1.27,-0.28 -2.53,0.52 -2.81,1.79 -0.72,3.28 -1.25,7.12 -1.58,11.41 -0.1,1.3 0.87,2.43 2.17,2.53 0.06,0.01 0.12,0.01 0.18,0.01 1.22,0 2.25,-0.94 2.35,-2.18 0.31,-4.07 0.81,-7.69 1.49,-10.75 0.28,-1.27 -0.53,-2.53 -1.8,-2.81z"/>
    </g>
   </g>
   <g>
    <g>
     <path class="fil1" d="M320.58 73.07c-1.95,0 -3.53,1.59 -3.53,3.54 0,1.95 1.58,3.54 3.53,3.54 1.95,0 3.54,-1.59 3.54,-3.54 0,-1.95 -1.59,-3.54 -3.54,-3.54z"/>
    </g>
   </g>
   <g>
    <g>
     <path class="fil1" d="M323.01 146.2l-0.05 0c-1.3,0 -2.36,1.06 -2.36,2.36 0,1.3 1.06,2.36 2.36,2.36l0.05 0c1.31,0 2.36,-1.06 2.36,-2.36 0,-1.3 -1.05,-2.36 -2.36,-2.36z"/>
    </g>
   </g>
   <g>
    <g>
     <path class="fil1" d="M356.59 93.12c-0.96,-6.36 -5.73,-10.03 -6.66,-10.69l-26.03 -22.56c-0.5,-3.39 -2.68,-14.81 -9.8,-19.79 -0.51,-0.36 -1.16,-0.5 -1.78,-0.39 -0.89,0.17 -3.07,1 -4.97,5.09l-11.25 0c-9.58,0 -18.61,3.76 -25.43,10.58 -6.77,6.76 -10.52,15.71 -10.58,25.21 -6.67,1.13 -11.77,6.94 -11.77,13.93l0 63.49c0,1.3 1.06,2.36 2.36,2.36l23.6 0 66.74 0c1.15,0 2.13,-0.84 2.32,-1.98 1.79,-10.91 0.71,-19.94 -3.32,-27.61 -3.48,-6.63 -8.52,-11.09 -12.96,-15.03 -4.44,-3.92 -8.07,-7.15 -8.82,-11.32l8.3 0c2.8,7.46 8.47,7.88 10.9,7.69 3.24,-0.26 6.36,-1.9 8.11,-3.99l2.49 1.45c1,0.58 2.28,0.35 3.01,-0.55 4.45,-5.43 6.31,-10.78 5.54,-15.89zm-91.78 -12.33c0,-17.25 14.03,-31.29 31.29,-31.29l9.63 0c-0.41,1.61 -0.77,3.48 -1.05,5.66 -12.78,1.82 -23,8.56 -29.66,19.57 -4.25,7.03 -6.96,15.72 -7.92,25.15 -1.57,-5.28 -2.29,-10.85 -2.29,-17.15l0 -1.94zm8.48 74.84l-20.25 0 0 -61.13c0,-4.39 3.02,-8.09 7.09,-9.12 0.33,9.8 2.5,18.25 6.85,26.47 0.05,0.12 0.11,0.24 0.18,0.35 0.98,1.82 2.06,3.63 3.26,5.45 0.3,0.45 0.6,0.91 0.91,1.37 3.53,5.32 7.53,11.35 8.7,17.63 1.25,6.69 -0.95,12.91 -6.74,18.98zm75.33 -51.19l-2.74 -1.59 -3.94 -2.78c-1.06,-0.75 -2.53,-0.5 -3.28,0.56 -0.75,1.07 -0.5,2.54 0.56,3.29l2.27 1.6c-0.99,0.87 -2.82,1.88 -4.89,1.9 -0.02,0 -0.03,0 -0.05,0 -2.9,0 -4.93,-2.02 -6.03,-6 -0.28,-1.02 -1.21,-1.72 -2.27,-1.72l-12.47 0c-0.01,0 -0.02,0 -0.04,0l-2.12 0c-4.57,0 -8.29,-3.72 -8.29,-8.29 0,-1.3 -1.05,-2.36 -2.36,-2.36 -1.3,0 -2.35,1.06 -2.35,2.36 0,7.12 5.75,12.92 12.85,13 0.69,6.19 5.45,10.41 10.46,14.85 6.95,6.15 14.64,12.97 15.46,26.94l-9.6 0c-1.31,0 -2.36,1.06 -2.36,2.36 0,1.3 1.05,2.36 2.36,2.36l9.62 0c-0.07,1.49 -0.21,3.06 -0.43,4.71l-59.49 0c11.68,-15.23 2.57,-28.97 -4.23,-39.22 -0.31,-0.45 -0.61,-0.91 -0.9,-1.36 -1.06,-1.6 -2.02,-3.18 -2.88,-4.77 -0.75,-21.74 8.09,-47.84 35.56,-50.66 1.11,-0.11 1.99,-0.99 2.11,-2.1 0.46,-4.46 1.19,-7.44 1.92,-9.43 0.04,-0.08 0.07,-0.17 0.1,-0.26 0.55,-1.43 1.09,-2.31 1.5,-2.83 5.39,5.18 6.66,16.2 6.67,16.32 0.06,0.59 0.35,1.14 0.8,1.53l26.8 23.23c0.07,0.06 0.15,0.12 0.24,0.18 0.04,0.03 4.03,2.79 4.75,7.56 0.49,3.28 -0.62,6.85 -3.31,10.62z"/>
    </g>
   </g>
   <g>
   </g>
   <g>
   </g>
   <g>
   </g>
   <g>
   </g>
   <g>
   </g>
   <g>
   </g>
   <g>
   </g>
   <g>
   </g>
   <g>
   </g>
   <g>
   </g>
   <g>
   </g>
   <g>
   </g>
   <g>
   </g>
   <g>
   </g>
   <g>
   </g>
  </g>
  <g id="_2323519326112">
   <g>
    <path class="fil1" d="M108.2 74.41l3.67 2.92c0.43,0.34 0.94,0.5 1.44,0.5 0.68,0 1.36,-0.3 1.81,-0.87 0.8,-1.01 0.63,-2.46 -0.37,-3.26l-3.67 -2.91c-1.01,-0.79 -2.46,-0.63 -3.26,0.37 -0.79,1 -0.62,2.46 0.38,3.25z"/>
    <path class="fil1" d="M87.17 77.83c0.5,0 1.01,-0.16 1.44,-0.5l3.67 -2.92c1,-0.79 1.17,-2.25 0.38,-3.25 -0.8,-1 -2.25,-1.17 -3.25,-0.37l-3.68 2.91c-1,0.8 -1.17,2.25 -0.37,3.26 0.45,0.57 1.13,0.87 1.81,0.87z"/>
    <path class="fil1" d="M110.08 88.09c1.55,1.46 3.55,2.26 5.68,2.26 0.08,0 0.16,0 0.24,-0.01 2.21,-0.06 4.26,-0.98 5.78,-2.59l2.11 -2.23c0.87,-0.93 0.83,-2.39 -0.1,-3.27 -4.54,-4.29 -11.74,-4.09 -16.03,0.46 -0.43,0.45 -0.65,1.04 -0.64,1.65 0.02,0.62 0.28,1.2 0.73,1.62l2.23 2.11zm8.57 -3.76l-0.23 0.25c-0.67,0.71 -1.58,1.11 -2.55,1.14 -0.98,0.03 -1.9,-0.33 -2.61,-1l-0.25 -0.23c1.76,-0.88 3.83,-0.94 5.64,-0.16z"/>
    <path class="fil1" d="M75.48 83.87c-0.02,0.61 0.21,1.21 0.63,1.65l2.11 2.23c1.52,1.61 3.57,2.53 5.78,2.59 0.08,0.01 0.16,0.01 0.24,0.01 2.12,0 4.13,-0.8 5.68,-2.26l2.23 -2.11c0.93,-0.88 0.97,-2.34 0.09,-3.27 -2.08,-2.2 -4.89,-3.46 -7.92,-3.55 -3.03,-0.09 -5.91,1.01 -8.11,3.09 -0.45,0.43 -0.71,1.01 -0.73,1.62zm11.51 0.62l-0.25 0.23c-1.46,1.39 -3.78,1.32 -5.16,-0.14l-0.23 -0.25c1.8,-0.78 3.88,-0.72 5.64,0.16z"/>
    <path class="fil1" d="M157.52 58.87c-5.35,-6.06 -13.3,-7.48 -17.56,-7.79 -1.46,-0.11 -2.86,-0.87 -3.95,-2.16l-0.09 -0.11c-3.55,-4.19 -9.11,-5.01 -13.45,-2.06 -2.5,-1.46 -5.4,-2.28 -8.47,-2.28l-28 0c-3.07,0 -5.97,0.82 -8.47,2.28 -4.34,-2.95 -9.9,-2.13 -13.45,2.06l-0.09 0.11c-1.09,1.29 -2.49,2.05 -3.95,2.16 -4.26,0.31 -12.21,1.73 -17.56,7.79 -2.69,3.04 -3.55,7.61 -2.19,11.65 2.23,6.6 6.03,15.31 8.83,21.46 0.93,2.03 1.75,5.41 2.38,9.76 0.41,2.84 2.36,5.14 5.09,6 0.75,0.24 1.51,0.36 2.27,0.36 1.57,0 3.11,-0.51 4.38,-1.47 -0.88,7.13 -3.54,24.16 -9.56,34.2 -0.63,1.04 -0.34,2.4 0.66,3.09 5.7,3.95 15.72,6.78 23.12,8.47 8.17,1.85 17.05,3.15 21.64,3.15 0.01,0 0.03,0 0.04,0 0.57,0 1.15,0 1.72,0 0.02,0 0.03,0 0.04,0 4.59,0 13.48,-1.3 21.64,-3.15 7.4,-1.69 17.42,-4.52 23.12,-8.47 1,-0.69 1.29,-2.05 0.67,-3.09 -6.03,-10.04 -8.69,-27.07 -9.57,-34.2 1.28,0.96 2.81,1.47 4.39,1.47 0.75,0 1.51,-0.12 2.26,-0.36 2.73,-0.86 4.68,-3.16 5.09,-6 0.63,-4.35 1.45,-7.73 2.38,-9.76 2.8,-6.15 6.6,-14.86 8.83,-21.46 1.36,-4.04 0.5,-8.61 -2.19,-11.65zm-43.52 -9.78c5.36,0 10,3.45 11.56,8.58l9.81 32.33c0.7,2.33 0.49,4.81 -0.6,6.98l-15.88 31.77c-1.43,2.87 -4.64,4.45 -7.79,3.83l-6.04 -1.18c-3.36,-0.66 -6.77,-0.66 -10.13,0l-6.03 1.18c-3.15,0.61 -6.36,-0.96 -7.8,-3.83l-15.88 -31.77c-1.08,-2.17 -1.29,-4.65 -0.59,-6.98l9.81 -32.33c1.55,-5.13 6.2,-8.58 11.56,-8.58l28 0zm-56.01 54.24c-1.04,-0.33 -1.76,-1.17 -1.91,-2.25 -0.7,-4.85 -1.62,-8.56 -2.75,-11.02 -2.75,-6.05 -6.49,-14.6 -8.65,-21.02 -0.83,-2.46 -0.32,-5.32 1.26,-7.11 4.27,-4.83 10.87,-5.98 14.43,-6.24 2.72,-0.19 5.26,-1.54 7.15,-3.78l0.1 -0.11c1.63,-1.93 3.92,-2.59 6,-1.88 -1.62,1.79 -2.87,3.96 -3.61,6.4l-9.81 32.34c-1.05,3.46 -0.73,7.15 0.88,10.39l1.08 2.15 -1.31 1.39c-0.75,0.79 -1.82,1.07 -2.86,0.74zm42.91 47.58c-0.01,0 -0.02,0 -0.03,0 -0.58,0 -1.16,0 -1.74,0 -0.01,0 -0.02,0 -0.03,0 -7.47,0 -30.15,-4.02 -40.34,-9.69 4.78,-9.12 7.3,-21.77 8.51,-29.8l9.7 19.39c2.02,4.05 6.16,6.53 10.57,6.53 0.74,0 1.5,-0.07 2.25,-0.22l6.03 -1.18c2.78,-0.55 5.58,-0.55 8.36,0l6.03 1.18c5.19,1.01 10.46,-1.58 12.82,-6.31l9.7 -19.39c1.21,8.03 3.73,20.68 8.51,29.79 -10.19,5.68 -32.87,9.7 -40.34,9.7zm54.42 -81.87c-2.16,6.42 -5.9,14.97 -8.65,21.02 -1.13,2.46 -2.05,6.17 -2.75,11.02 -0.16,1.08 -0.87,1.92 -1.91,2.25 -1.04,0.33 -2.11,0.05 -2.86,-0.74l-1.31 -1.39 1.07 -2.15c1.62,-3.24 1.94,-6.93 0.89,-10.39l-9.81 -32.33c-0.74,-2.45 -1.99,-4.61 -3.61,-6.41 2.08,-0.71 4.37,-0.05 6,1.88l0.1 0.11c1.89,2.24 4.43,3.59 7.15,3.78 3.56,0.26 10.16,1.41 14.43,6.24 1.58,1.79 2.09,4.65 1.26,7.11z"/>
    <path class="fil1" d="M91.28 94.44c-6.16,3.25 -9.99,9.59 -9.99,16.55l0 14.19c0,0.92 0.54,1.74 1.37,2.12 3.53,1.57 7.58,1.57 11.11,-0.01l1.58 -0.71c2.95,-1.32 6.34,-1.32 9.3,0l1.58 0.71c1.76,0.79 3.66,1.18 5.56,1.18 1.89,0 3.78,-0.39 5.55,-1.18 0.83,-0.37 1.37,-1.2 1.37,-2.11l0 -14.19c0,-6.96 -3.83,-13.3 -9.99,-16.56 -1.3,-0.68 -2.16,-2.01 -2.25,-3.47l-0.68 -11.54c-0.08,-1.28 -1.17,-2.25 -2.45,-2.18 -1.27,0.08 -2.25,1.18 -2.17,2.45l0.69 11.55c0.18,3.06 1.98,5.85 4.7,7.29 4.64,2.44 7.52,7.22 7.52,12.46l0 12.56c-1.97,0.52 -4.08,0.36 -5.96,-0.49l-1.58 -0.7c-1.36,-0.61 -2.78,-1.01 -4.23,-1.23l0 -1.81c0.42,-0.07 0.84,-0.15 1.25,-0.26 0.69,-0.18 1.25,-0.65 1.54,-1.3l0.89 -2c0.12,-0.26 0.41,-0.39 0.68,-0.3l0.76 0.25c0.96,0.32 2.01,-0.02 2.6,-0.84 1.05,-1.45 1.61,-3.11 1.61,-4.81 0,-4.86 -4.26,-7.98 -11.1,-8.14 -0.36,-0.01 -0.73,-0.01 -1.08,0 -6.85,0.16 -11.1,3.28 -11.1,8.14 0,1.7 0.56,3.37 1.61,4.81 0.59,0.82 1.64,1.16 2.59,0.84l0.77 -0.25c0.27,-0.09 0.56,0.04 0.67,0.3l0.9 2c0.28,0.65 0.85,1.13 1.53,1.3 0.42,0.11 0.83,0.19 1.25,0.26l0 1.81c-1.44,0.22 -2.87,0.62 -4.22,1.23l-1.58 0.7c-1.88,0.85 -3.99,1.01 -5.97,0.49l0 -12.56c0,-5.24 2.89,-10.02 7.53,-12.46 2.72,-1.44 4.52,-4.23 4.7,-7.29l0.69 -11.55c0.07,-1.27 -0.9,-2.37 -2.18,-2.45 -1.27,-0.07 -2.37,0.9 -2.44,2.18l-0.69 11.54c-0.08,1.46 -0.94,2.79 -2.24,3.48zm1.8 16.38c-0.06,-0.25 -0.09,-0.5 -0.09,-0.76 0,-3.2 5.48,-3.49 6.59,-3.52 0.28,0 0.55,0 0.85,0 1.1,0.03 6.58,0.32 6.58,3.52 0,0.26 -0.03,0.51 -0.09,0.76 -2.15,-0.18 -4.24,1 -5.15,3.06l-0.41 0.91c-0.89,0.12 -1.83,0.12 -2.72,0l-0.41 -0.91c-0.91,-2.06 -3,-3.25 -5.15,-3.06z"/>
   </g>
   <g>
   </g>
   <g>
   </g>
   <g>
   </g>
   <g>
   </g>
   <g>
   </g>
   <g>
   </g>
   <g>
   </g>
   <g>
   </g>
   <g>
   </g>
   <g>
   </g>
   <g>
   </g>
   <g>
   </g>
   <g>
   </g>
   <g>
   </g>
   <g>
   </g>
  </g>
  <g id="_2323519324064">
   <path class="fil1" d="M-398.64 86.18l-9.42 -7.07 7.66 -0.85c1,-0.11 1.76,-0.95 1.76,-1.96 -0.01,-4.37 -2.35,-8.4 -6.14,-10.58l-5.71 -3.27 0 -7.87c-0.01,-7.64 -6.19,-13.82 -13.83,-13.83l-1.97 0c-1.04,0 -1.9,0.8 -1.98,1.83 -2.09,-1.2 -4.46,-1.83 -6.88,-1.83l-2.99 0c-1.04,0 -1.9,0.8 -1.98,1.83 -2.09,-1.2 -4.46,-1.83 -6.88,-1.83l-2.99 0c-0.63,0 -1.21,0.3 -1.59,0.8 -0.37,0.5 -0.48,1.14 -0.3,1.74l3.39 11.31c1.13,3.72 3.77,6.79 7.28,8.47 -0.08,0.2 -0.17,0.36 -0.24,0.55l-7.96 22.56 -21.12 0c-6.95,-12.24 -25.41,-19.75 -39.07,-19.75l-1.62 0c-1.09,0 -1.97,0.88 -1.97,1.97l0 1.22c-0.02,4.74 1.88,9.28 5.26,12.61l-3.29 0c-1.09,0 -1.97,0.88 -1.97,1.97l0 1.22c-0.02,4.74 1.88,9.28 5.26,12.61l-3.29 0c-1.09,0 -1.97,0.88 -1.97,1.97l0 1.22c-0.02,7.01 4.12,13.36 10.54,16.17 9.32,13.69 24.31,22.46 40.81,23.89l0 6.12 -3.95 0 0 3.95 3.95 0 0 3.95 -3.95 0 0 3.95 27.65 0 0 -3.95 -7.9 0 0 -14.32c19.58,-3.02 34.37,-19.35 35.44,-39.14 1.72,1.36 3.84,2.1 6.03,2.11 4.25,0 8.03,-2.72 9.37,-6.75 1.35,-4.03 -0.04,-8.47 -3.44,-11.02l0 0zm-4.15 -11.62l-7.7 0.85 0 -6.95c0,-0.51 -0.03,-1.01 -0.08,-1.51l3.83 2.19c2.02,1.17 3.46,3.13 3.95,5.42zm-41.92 -21.1l-2.63 -8.76 0.34 0c2.62,-0.01 5.14,1.04 6.99,2.89l2.45 2.46c0.65,0.64 1.65,0.76 2.43,0.28 0.78,-0.48 1.12,-1.44 0.84,-2.3l-1.11 -3.33 0.25 0c2.62,-0.01 5.14,1.04 6.99,2.89l2.45 2.46c0.65,0.64 1.65,0.76 2.43,0.28 0.78,-0.48 1.12,-1.44 0.84,-2.3l-1.1 -3.3c5.13,0.41 9.09,4.69 9.1,9.85l0 3.41c-0.4,-0.45 -0.82,-0.89 -1.27,-1.29 -3.39,-3.09 -7.95,-4.54 -12.49,-3.99 -4.55,0.55 -8.63,3.06 -11.18,6.86 -2.56,-1.18 -4.5,-3.4 -5.33,-6.11l0 0zm-5.28 93.94l-3.95 0 0 3.95 3.95 0 0 3.95 -7.9 0 0 -13.81c0.3,0 0.59,0.03 0.9,0.03l0.3 0c1.84,0 3.56,-0.02 5.03,-0.04 0.57,0 1.11,-0.08 1.67,-0.11l0 6.03zm35.55 -47.66c-0.07,20.64 -16.63,37.43 -37.27,37.79 -1.47,0.02 -3.17,0.03 -5,0.04l-0.28 0c-17.17,0.02 -33.21,-8.56 -42.71,-22.87 -0.22,-0.33 -0.54,-0.59 -0.91,-0.73 -4.97,-1.97 -8.33,-6.66 -8.61,-11.99l7.88 0c0.94,-0.01 1.76,-0.68 1.93,-1.61 0.18,-0.92 -0.32,-1.85 -1.2,-2.2 -4.97,-1.97 -8.33,-6.66 -8.61,-11.99l7.88 0c0.94,0 1.76,-0.68 1.93,-1.61 0.18,-0.92 -0.32,-1.85 -1.2,-2.2 -4.97,-1.97 -8.33,-6.66 -8.61,-11.99 11.75,0.13 27.17,6.33 34,15.8l-2.42 0c-1.09,0 -1.98,0.88 -1.98,1.97 0,1.09 0.89,1.98 1.98,1.98l29.62 0c0.84,0 1.59,-0.53 1.87,-1.32l8.42 -23.88c1.5,-4.49 5.45,-7.73 10.15,-8.32 5.01,-0.53 9.81,2.16 11.97,6.72 0.02,0.12 0.05,0.24 0.09,0.35 0.71,1.56 1.08,3.26 1.08,4.98l0 31.08zm9.87 0.26c-3.27,0 -5.92,-2.65 -5.92,-5.92l0 -11.85 9.48 7.11c2.04,1.53 2.87,4.19 2.06,6.61 -0.8,2.42 -3.07,4.05 -5.62,4.05l0 0zm0 0z"/>
   <path class="fil1" d="M-426.29 62.48c-3.27,0 -5.93,2.65 -5.93,5.92 0,3.27 2.66,5.93 5.93,5.93 3.27,0 5.92,-2.66 5.92,-5.93 0,-3.27 -2.65,-5.92 -5.92,-5.92zm0 7.9c-1.09,0 -1.98,-0.89 -1.98,-1.98 0,-1.09 0.89,-1.97 1.98,-1.97 1.09,0 1.97,0.88 1.97,1.97 0,1.09 -0.88,1.98 -1.97,1.98zm0 0z"/>
   <path class="fil1" d="M-445.05 96.05l-28.64 0c-1.09,0 -1.98,0.89 -1.98,1.98 0,2.91 1.08,5.73 3.03,7.9l-5 0c-1.09,0 -1.98,0.88 -1.98,1.97 0,2.92 1.08,5.73 3.03,7.9l-1.05 0c-1.09,0 -1.98,0.89 -1.98,1.98 0.01,6.54 5.31,11.84 11.85,11.85l22.72 0c9.27,0 16.78,-7.52 16.78,-16.79 0,-9.27 -7.51,-16.79 -16.78,-16.79l0 0zm0 29.63l-22.72 0c-3.6,-0.01 -6.74,-2.44 -7.65,-5.93l7.65 0c1.09,0 1.98,-0.88 1.98,-1.97 0,-1.09 -0.89,-1.98 -1.98,-1.98 -3.6,0 -6.74,-2.44 -7.65,-5.92l11.6 0c1.09,0 1.98,-0.89 1.98,-1.98 0,-1.09 -0.89,-1.97 -1.98,-1.97 -3.6,-0.01 -6.74,-2.44 -7.65,-5.93l26.42 0c7.09,0 12.83,5.75 12.83,12.84 0,7.09 -5.74,12.84 -12.83,12.84l0 0zm0 0z"/>
  </g>
  <g id="_2323519375968">
   <g>
    <g>
     <path class="fil1" d="M615.48 67.66c-1.86,-2.73 -5.2,-4.08 -9.42,-3.8 -3.74,0.24 -7.84,1.76 -11.53,4.27 -1.49,1.01 -2.86,2.15 -4.07,3.38 2.48,-5.39 3.57,-10.81 3.15,-15.9 -0.44,-5.31 -2.53,-10.08 -5.73,-13.08 -3.21,-3.02 -7.12,-3.7 -9.97,-1.76 -3.99,2.73 -3.72,6.63 -3.46,10.39 0.25,3.61 0.53,7.65 -1.98,12.79 -3.72,-0.9 -7.88,-1.35 -12.41,-1.35 -4.46,0 -8.55,0.44 -12.22,1.31 -2.48,-5.12 -2.2,-9.15 -1.95,-12.75 0.25,-3.76 0.52,-7.66 -3.46,-10.39 -2.89,-1.97 -6.71,-1.3 -9.97,1.75 -3.2,2.99 -5.28,7.75 -5.73,13.05 -0.43,5.09 0.65,10.54 3.14,15.94 -1.21,-1.23 -2.58,-2.37 -4.07,-3.38 -3.69,-2.51 -7.78,-4.03 -11.52,-4.27 -4.22,-0.28 -7.57,1.07 -9.42,3.8 -1.86,2.72 -1.89,6.33 -0.08,10.16 1.6,3.39 4.51,6.64 8.21,9.15 3.53,2.4 7.34,3.86 10.87,4.22 -0.84,5.29 -0.96,11.28 -0.36,18.19 0.53,6.15 1.76,12.04 3.67,17.52 -0.62,2.09 -0.94,4.45 -0.94,7.04 0,14.56 9.87,26.41 22.01,26.41 4.3,0 8.38,-1.45 11.93,-4.2 3.54,2.75 7.63,4.2 11.93,4.2 12.13,0 22.01,-11.85 22.01,-26.41 0,-2.57 -0.32,-4.91 -0.93,-6.97 1.9,-5.5 3.13,-11.41 3.66,-17.59 0.59,-6.79 0.45,-12.88 -0.4,-18.18 3.53,-0.35 7.36,-1.81 10.91,-4.23 3.69,-2.51 6.61,-5.77 8.21,-9.15 1.8,-3.83 1.77,-7.44 -0.08,-10.16zm-36.05 -16.84c-0.26,-3.84 -0.17,-4.92 1.29,-5.92 0.96,-0.65 2.57,0.17 3.74,1.27 2.28,2.14 3.84,5.82 4.17,9.85 0.37,4.48 -0.7,9.35 -3.1,14.22 -2.39,-1.97 -5.14,-3.58 -8.24,-4.79 2.74,-6.03 2.4,-10.93 2.14,-14.63zm-47.72 5.17c0.34,-4.02 1.89,-7.7 4.17,-9.83 1.17,-1.09 2.78,-1.91 3.73,-1.26 1.46,1 1.55,2.08 1.29,5.92 -0.26,3.69 -0.59,8.57 2.12,14.57 -3.11,1.2 -5.87,2.79 -8.26,4.76 -2.37,-4.86 -3.43,-9.71 -3.05,-14.16zm-6.81 30.27c-2.81,-0.15 -6.09,-1.37 -9.1,-3.42 -2.93,-1.99 -5.3,-4.6 -6.5,-7.15 -1.01,-2.13 -1.12,-4.03 -0.31,-5.22 0.8,-1.19 2.61,-1.78 4.96,-1.63 2.82,0.18 6.12,1.43 9.04,3.42 2.25,1.53 4.14,3.39 5.46,5.34 -1.5,2.56 -2.69,5.46 -3.55,8.66zm66.96 22.69c-0.35,4.11 -1.03,8.08 -2.03,11.87 -1.41,-1.59 -3.16,-2.87 -5.24,-3.84 -1.25,-0.58 -2.73,-0.04 -3.32,1.21 -0.58,1.25 -0.04,2.74 1.21,3.32 2.83,1.31 4.69,3.36 5.71,6.26 0.61,1.73 0.92,3.81 0.92,6.17 0,11.8 -7.63,21.41 -17.01,21.41 -3.71,0 -7.25,-1.49 -10.21,-4.3 -0.97,-0.92 -2.48,-0.92 -3.44,0 -2.97,2.81 -6.5,4.3 -10.21,4.3 -9.38,0 -17.01,-9.61 -17.01,-21.41 0,-2.36 0.31,-4.44 0.92,-6.18 0.02,-0.05 0.03,-0.1 0.05,-0.15 1.97,-5.4 7.07,-7.92 16.04,-7.92 1.98,0 3.8,0.13 5.42,0.38 4.32,0.68 8.7,0.68 13.02,0 1.02,-0.16 2.13,-0.27 3.3,-0.33 1.38,-0.07 2.44,-1.25 2.37,-2.62 -0.07,-1.38 -1.25,-2.44 -2.63,-2.37 -1.34,0.07 -2.63,0.2 -3.82,0.39 -3.8,0.6 -7.66,0.6 -11.46,0 -1.87,-0.3 -3.96,-0.45 -6.2,-0.45 -5.09,0 -9.17,0.74 -12.47,2.27 -2.08,0.97 -3.83,2.25 -5.25,3.83 -1,-3.78 -1.69,-7.74 -2.04,-11.84 -0.66,-7.64 -0.38,-14.27 0.83,-19.7 0.88,-3.97 2.27,-7.42 4.16,-10.27 0.73,-1.11 1.55,-2.14 2.44,-3.09 2.9,-3.07 6.72,-5.31 11.35,-6.67 3.7,-1.08 8,-1.62 12.8,-1.62 4.86,0 9.23,0.56 12.97,1.67 4.62,1.37 8.44,3.63 11.35,6.72 0.35,0.36 0.68,0.74 1,1.13 0.51,0.62 1,1.28 1.44,1.96 1.87,2.82 3.28,6.24 4.17,10.17 1.23,5.46 1.53,12.09 0.87,19.7zm19.18 -33.26c-1.21,2.55 -3.58,5.16 -6.5,7.15 -3.04,2.07 -6.34,3.29 -9.15,3.43 -0.87,-3.18 -2.06,-6.06 -3.56,-8.59 1.32,-1.98 3.23,-3.87 5.51,-5.42 2.92,-1.99 6.22,-3.23 9.04,-3.42 2.35,-0.15 4.16,0.45 4.96,1.63 0.81,1.19 0.7,3.09 -0.3,5.22z"/>
    </g>
   </g>
   <g>
    <g>
     <path class="fil1" d="M577.31 115c-0.26,-0.04 -0.53,-0.07 -0.79,-0.09 -1.37,-0.15 -2.6,0.85 -2.74,2.22 -0.15,1.37 0.85,2.6 2.22,2.74 0.23,0.03 0.46,0.05 0.68,0.08 0.11,0.02 0.21,0.02 0.32,0.02 1.24,0 2.31,-0.92 2.47,-2.18 0.17,-1.37 -0.79,-2.62 -2.16,-2.79z"/>
    </g>
   </g>
   <g>
    <g>
     <path class="fil1" d="M547.16 125.89c-4.32,0 -7.84,3.52 -7.84,7.84 0,4.32 3.52,7.83 7.84,7.83 4.32,0 7.83,-3.51 7.83,-7.83 0,-4.32 -3.52,-7.84 -7.83,-7.84zm0 10.67c-1.57,0 -2.84,-1.27 -2.84,-2.83 0,-1.57 1.27,-2.84 2.84,-2.84 1.56,0 2.83,1.27 2.83,2.84 0,1.56 -1.27,2.83 -2.83,2.83z"/>
    </g>
   </g>
   <g>
    <g>
     <path class="fil1" d="M573.18 125.89c-4.32,0 -7.84,3.52 -7.84,7.84 0,4.32 3.52,7.83 7.84,7.83 4.32,0 7.83,-3.51 7.83,-7.83 0,-4.32 -3.51,-7.84 -7.83,-7.84zm0 10.67c-1.57,0 -2.84,-1.27 -2.84,-2.83 0,-1.57 1.27,-2.84 2.84,-2.84 1.56,0 2.83,1.27 2.83,2.84 0,1.56 -1.27,2.83 -2.83,2.83z"/>
    </g>
   </g>
   <g>
    <g>
     <path class="fil1" d="M541.3 94.8c-1.38,0 -2.5,1.12 -2.5,2.5l0 1.52c0,1.38 1.12,2.5 2.5,2.5 1.38,0 2.5,-1.12 2.5,-2.5l0 -1.52c0,-1.38 -1.12,-2.5 -2.5,-2.5z"/>
    </g>
   </g>
   <g>
    <g>
     <path class="fil1" d="M579.03 94.8c-1.38,0 -2.5,1.12 -2.5,2.5l0 1.52c0,1.38 1.12,2.5 2.5,2.5 1.38,0 2.5,-1.12 2.5,-2.5l0 -1.52c0,-1.38 -1.12,-2.5 -2.5,-2.5z"/>
    </g>
   </g>
   <g>
   </g>
   <g>
   </g>
   <g>
   </g>
   <g>
   </g>
   <g>
   </g>
   <g>
   </g>
   <g>
   </g>
   <g>
   </g>
   <g>
   </g>
   <g>
   </g>
   <g>
   </g>
   <g>
   </g>
   <g>
   </g>
   <g>
   </g>
   <g>
   </g>
  </g>
  <g id="_2323519377536">
   <path class="fil1" d="M487.71 75.21l-1.17 -1.46c-1.2,-1.51 -3,-2.37 -4.93,-2.37 -2.15,0 -4.13,1.07 -5.3,2.87l-4.4 6.75c-1.13,1.74 -3.66,2.24 -5.37,1.07 -1.18,-0.81 -2.39,-1.55 -3.6,-2.28l-5.09 -6.36c-1.16,-1.45 -1.8,-3.27 -1.8,-5.13 0,-3.14 1.74,-5.95 4.54,-7.36l2.68 -1.34c2.86,-1.42 4.63,-4.29 4.63,-7.48l0 -2.37 -40 7.41c-10.17,1.88 -18.95,7.98 -24.33,16.77 -10.84,3.82 -20.72,10.23 -28.62,18.85 -1.2,1.31 -1.85,3 -1.85,4.77 0,1.77 0.65,3.46 1.85,4.76 7.95,8.68 17.92,15.13 28.85,18.93l2.41 2.76c7.25,8.29 17.73,13.05 28.75,13.05 5.71,0 11.38,1.44 16.4,4.18l16.54 9.02 0 -3.33c0,-4.37 -2.18,-8.43 -5.81,-10.85l-0.98 -0.65c-3.17,-2.12 -5.06,-5.65 -5.06,-9.47 0,-3.56 1.7,-6.96 4.55,-9.1l1 -0.75c1.68,-0.96 3.33,-1.97 4.94,-3.07 1.71,-1.17 4.24,-0.67 5.37,1.07l4.4 6.75c1.18,1.79 3.15,2.87 5.3,2.87 1.93,0 3.73,-0.87 4.94,-2.37l1.16 -1.46c5.05,-6.32 7.84,-14.25 7.84,-22.34 0,-8.09 -2.79,-16.02 -7.84,-22.34l0 0zm-19 11.48c2.63,0 5.07,-1.32 6.51,-3.53l1.98 -3.04c0.73,0.88 1.84,2.36 2.95,4.36l-0.16 0.16c-2.92,2.92 -6.71,4.64 -10.78,4.94 -0.15,-0.97 -0.34,-1.93 -0.56,-2.9 0.02,0 0.04,0.01 0.06,0.01l0 0zm13.19 20.18c-3.42,-3.06 -7.66,-4.9 -12.21,-5.28 0.05,-0.69 0.09,-1.38 0.12,-2.07l13.81 0c-0.23,2.73 -0.88,5.19 -1.72,7.35l0 0zm-12.09 -11.3c-0.03,-0.69 -0.07,-1.37 -0.12,-2.06 4.56,-0.38 8.8,-2.23 12.22,-5.29 0.83,2.15 1.49,4.62 1.71,7.35l-13.81 0zm-8.3 -39.5l-2.69 1.34c-4.15,2.08 -6.72,6.25 -6.72,10.89 0,2.59 0.86,5.12 2.4,7.21 -5.06,-2.16 -10.33,-3.72 -15.76,-4.63 1.97,-5.47 5.47,-10.15 10.18,-13.6l14.24 -2.64c-0.41,0.6 -0.97,1.09 -1.65,1.43l0 0zm-26.32 3.75l6.35 -1.17c-3.03,3.35 -5.35,7.3 -6.81,11.67l-0.01 0.03c-2.48,-0.27 -4.99,-0.45 -7.51,-0.45l-0.24 0c-1,0 -2,0.03 -3,0.08 2.76,-4.34 6.61,-7.85 11.22,-10.16l0 0zm-9.55 1.94c-2.1,2 -3.95,4.28 -5.46,6.8l-1.08 1.79c-3.15,0.36 -6.27,0.93 -9.33,1.71 4.14,-4.93 9.64,-8.53 15.87,-10.3l0 0zm-47.78 37.89c-0.53,-0.58 -0.81,-1.32 -0.81,-2.1 0,-0.78 0.28,-1.52 0.81,-2.1 12.58,-13.73 30.49,-21.6 49.11,-21.6l0.24 0c13.28,0 26.1,3.96 37.07,11.46l0.26 1.04c0.92,3.66 1.38,7.43 1.38,11.2 0,3.77 -0.46,7.53 -1.37,11.19l-0.27 1.05c-10.97,7.49 -23.79,11.46 -37.07,11.46l-0.24 0c-4.75,0 -9.45,-0.52 -14.03,-1.51l1.97 -1.96c1.91,-1.91 3.47,-4.08 4.68,-6.4l21.47 0 0.58 -0.58c1.65,-1.65 2.56,-3.84 2.56,-6.17l0 -0.34c0,-1.83 -0.57,-3.58 -1.61,-5.04l0.44 -0.87c0.76,-1.53 1.17,-3.25 1.17,-4.96 0,-2.96 -1.16,-5.74 -3.25,-7.84l-2.68 -2.68 -1.77 1.78c-4.24,4.24 -9.16,7.57 -14.58,10.04 -1.14,-4.97 -4,-9.47 -8.14,-12.58l-2.37 3.16c4.45,3.34 7.11,8.66 7.11,14.22 0,5.84 -2.27,11.33 -6.4,15.46l-3.62 3.62c-0.87,-0.25 -1.74,-0.51 -2.6,-0.8 5.47,-4.46 8.67,-11.1 8.67,-18.28l-3.95 0c0,6.75 -3.39,12.94 -9.07,16.57l-0.07 0.05c-8.9,-3.69 -17,-9.27 -23.62,-16.49l0 0zm44.61 -0.13c0,-0.23 -0.03,-0.46 -0.04,-0.68 5.87,-2.52 11.2,-5.97 15.83,-10.36 1.28,1.33 1.99,3.09 1.99,4.94 0,1.1 -0.26,2.21 -0.76,3.19l-1.65 3.3 1.01 1.01c0.9,0.9 1.4,2.1 1.4,3.37l0 0.34c0,1.02 -0.32,1.99 -0.91,2.79l-18.11 0c0.81,-2.52 1.24,-5.17 1.24,-7.9zm36.45 39.19l0.98 0.65c1.43,0.95 2.54,2.27 3.23,3.79l-9.88 -5.39c-5.6,-3.05 -11.92,-4.66 -18.29,-4.66 -8.96,0 -17.51,-3.54 -23.87,-9.74 5.17,1.19 10.49,1.84 15.88,1.84l0.24 0c9.02,0 17.84,-1.75 26.07,-5.08 -0.75,1.84 -1.18,3.81 -1.18,5.83 0,5.14 2.55,9.91 6.82,12.76l0 0zm16.3 -26.77c-1.44,-2.21 -3.88,-3.53 -6.51,-3.53 -0.02,0 -0.04,0 -0.06,0 0.22,-0.96 0.4,-1.93 0.56,-2.9 4.07,0.31 7.86,2.03 10.78,4.95l0.15 0.15c-1.11,1.99 -2.22,3.48 -2.95,4.36l-1.97 -3.03zm9.41 5.48l-1.17 1.46c-0.95,1.19 -3,1.09 -3.84,-0.19l-0.18 -0.28c1.43,-1.54 8.21,-9.42 8.21,-20.86 0,-11.45 -6.78,-19.33 -8.21,-20.86l0.18 -0.29c0.84,-1.27 2.89,-1.38 3.84,-0.18l1.17 1.46c4.49,5.62 6.97,12.67 6.97,19.87 0,7.19 -2.48,14.25 -6.97,19.87zm0 0z"/>
   <path class="fil1" d="M396.8 89.65l3.95 0 0 3.95 -3.95 0 0 -3.95zm0 0z"/>
  </g>
  <g id="_2323519371968">
   <g>
    <path class="fil1" d="M564.68 -91.12c-1.27,-1.32 -2.76,-2.5 -3.76,-4 -1.68,-2.52 -3.78,-3.18 -6.78,-3.15 -16.78,0.16 -33.56,0.09 -50.34,0.02 -0.84,0 -1.87,-0.44 -2.47,-1.03 -6.01,-5.88 -11.96,-11.82 -17.86,-17.8 -0.57,-0.58 -1,-1.58 -1.01,-2.38 -0.06,-10.88 -0.05,-21.76 -0.04,-32.64 0.01,-1.64 0.93,-2.67 2.34,-2.68 1.22,-0.02 2.2,0.82 2.34,2.04 0.05,0.42 0.03,0.86 0.03,1.29 0,9.51 0,19.01 0,28.52 0,0.46 0,0.93 0,1.56 0.52,0 0.94,0 1.36,0 4.64,0 9.27,0 13.91,0 2.6,0 3.31,0.7 3.31,3.27 0,4.6 0,9.19 0,13.79 0,0.42 0,0.84 0,1.34 16.12,0 32.14,0 48.36,0 -0.33,-0.41 -0.58,-0.72 -0.84,-1.03 -4.37,-5.1 -8.74,-10.2 -13.11,-15.31 -0.15,-0.18 -0.3,-0.35 -0.46,-0.53 -0.67,-0.78 -0.91,-1.64 -0.47,-2.62 0.45,-1 1.25,-1.44 2.35,-1.44 3.06,0.02 6.13,0.01 9.19,0.01 0.43,0 0.86,0 1.44,0 0,-0.5 0,-0.91 0,-1.33 0,-5.58 0,-11.16 0,-16.73 0,-2.52 0.68,-3.19 3.24,-3.19 2.47,0 4.94,0 7.5,0 0,-20.65 0,-41.21 0,-61.86 -25.19,0 -50.43,0 -75.78,0 0,0.49 0,0.95 0,1.41 0,10.45 0,20.9 0,31.35 0,0.39 0.02,0.79 -0.02,1.18 -0.1,1.17 -0.96,2.05 -2.1,2.18 -1.11,0.12 -2.18,-0.62 -2.47,-1.76 -0.11,-0.45 -0.12,-0.93 -0.12,-1.4 0,-11.51 0,-23.02 0,-34.53 0,-2.5 0.74,-3.24 3.22,-3.24 26.29,0 52.58,0 78.87,0 2.48,0 3.21,0.74 3.21,3.24 0,20.59 0,41.17 0,61.76 0,0.5 0,1.01 0,1.67 1.97,0 3.84,0 5.72,0 0.94,0 1.88,-0.01 2.83,0 1.87,0.02 2.75,0.87 2.76,2.73 0.02,3.3 0.01,6.6 0.01,9.9 0,2.82 0,5.65 0,8.61 1.8,0 3.52,0 5.23,0 1.5,0 2.99,0.04 4.48,0 1.19,-0.04 2.21,0.21 2.77,1.36 0.57,1.18 0.05,2.1 -0.72,2.99 -5.35,6.23 -10.69,12.47 -16.03,18.71 -2.27,2.65 -4.53,5.32 -6.83,7.95 -0.56,0.64 -1.23,1.18 -1.84,1.77 -0.48,0 -0.95,0 -1.42,0zm9.64 -49.23c-5.87,0 -11.61,0 -17.43,0 0,0.51 0,0.94 0,1.37 0,5.49 0,10.99 0,16.48 0,2.59 -0.72,3.31 -3.27,3.32 -2.3,0 -4.6,0 -7.18,0 6.41,7.48 12.64,14.74 18.92,22.08 6.33,-7.4 12.54,-14.65 18.91,-22.08 -2.5,0 -4.69,0 -6.88,0 -2.3,0 -3.07,-0.76 -3.07,-3.02 0,-5.61 0,-11.23 0,-16.84 0,-0.42 0,-0.84 0,-1.31zm-83.04 23.74c3.17,3.2 6.48,6.53 9.64,9.7 0,-3.01 0,-6.33 0,-9.7 -3.4,0 -6.72,0 -9.64,0z"/>
    <path class="fil1" d="M519.27 -181.99c0,-2.47 -0.02,-4.94 0,-7.41 0.01,-2.04 0.85,-2.87 2.86,-2.88 1.21,0 2.43,0 3.65,0 4.77,0.01 7.88,2.47 9.01,7.15 0.71,2.95 0.55,5.85 -0.75,8.62 -1.59,3.36 -4.27,5.12 -8.01,5.19 -1.26,0.03 -2.51,0.03 -3.77,0.03 -2.03,0 -2.96,-0.88 -2.99,-2.93 -0.03,-2.58 0,-5.17 0,-7.77zm4.8 5.91c2.27,0.18 4.36,0.19 5.5,-2 1.34,-2.61 1.36,-5.34 -0.19,-7.86 -1.23,-2 -3.32,-1.69 -5.31,-1.56 0,3.84 0,7.59 0,11.42z"/>
    <path class="fil1" d="M525.97 -156.29c-7.07,0 -14.15,0 -21.22,0 -0.43,0 -0.87,0.02 -1.3,-0.03 -1.29,-0.16 -2.19,-1.16 -2.16,-2.37 0.03,-1.22 0.94,-2.15 2.26,-2.28 0.39,-0.04 0.78,-0.03 1.18,-0.03 14.18,0 28.37,0 42.55,0 0.51,0 1.03,0 1.53,0.08 1.1,0.17 1.89,1.11 1.93,2.2 0.04,1.08 -0.72,2.09 -1.8,2.32 -0.49,0.1 -1.01,0.11 -1.52,0.11 -7.15,0.01 -14.3,0 -21.45,0z"/>
    <path class="fil1" d="M505.99 -178.53c0,1.69 0.01,3.18 0,4.66 -0.02,1.65 -0.9,2.65 -2.33,2.66 -1.42,0.01 -2.37,-0.99 -2.37,-2.62 -0.02,-5.38 -0.02,-10.75 0,-16.12 0,-1.76 0.94,-2.72 2.68,-2.72 1.88,0 3.78,-0.1 5.63,0.17 3.64,0.54 6.09,3.74 5.87,7.36 -0.21,3.6 -3.06,6.41 -6.72,6.61 -0.86,0.04 -1.72,0 -2.76,0zm0.07 -4.7c1.61,-0.08 3.36,0.54 4.31,-1.18 0.34,-0.62 0.34,-1.77 -0.02,-2.38 -0.97,-1.67 -2.7,-1.13 -4.29,-1.15 0,1.57 0,3.04 0,4.71z"/>
    <path class="fil1" d="M543.96 -179.47c0,2.07 0.01,3.91 0,5.75 -0.01,1.76 -0.89,2.75 -2.38,2.73 -1.41,-0.03 -2.32,-1.03 -2.33,-2.69 -0.01,-5.3 -0.01,-10.6 0,-15.9 0.01,-1.83 0.87,-2.7 2.66,-2.72 2.08,-0.02 4.16,-0.02 6.24,0 1.55,0.02 2.57,0.95 2.59,2.3 0.01,1.33 -1.02,2.33 -2.54,2.39 -1.37,0.05 -2.73,0.01 -4.17,0.01 0,1.17 0,2.21 0,3.43 1.23,0 2.43,-0.04 3.63,0 1.54,0.06 2.54,1.04 2.53,2.39 -0.02,1.27 -0.98,2.25 -2.35,2.3 -1.24,0.04 -2.49,0.01 -3.88,0.01z"/>
    <path class="fil1" d="M526.01 -142.72c-3.73,0 -7.46,0.01 -11.18,0 -1.76,0 -2.8,-0.86 -2.83,-2.29 -0.02,-1.48 1.05,-2.41 2.84,-2.42 7.46,-0.01 14.91,0 22.36,0 1.15,0 2.13,0.3 2.62,1.42 0.39,0.89 0.36,1.87 -0.42,2.48 -0.56,0.45 -1.38,0.76 -2.1,0.78 -3.76,0.07 -7.53,0.03 -11.29,0.03z"/>
    <path class="fil1" d="M484.83 -165.45c1.31,0.03 2.3,1.03 2.29,2.33 -0.01,1.29 -1.03,2.31 -2.32,2.31 -1.34,0 -2.41,-1.09 -2.35,-2.4 0.05,-1.3 1.08,-2.26 2.38,-2.24z"/>
   </g>
  </g>
  <g style="clip-path:url(#id0)">
   <image x="-92.06" y="-261.72" width="500.53" height="170.13" xlink:href="Icon Dog_Images\Icon Dog_ImgID1.png"/>
  </g>
 </g>
</svg>
