<?xml version="1.0" standalone="no"?>
<!DOCTYPE svg PUBLIC "-//W3C//DTD SVG 20010904//EN"
 "http://www.w3.org/TR/2001/REC-SVG-20010904/DTD/svg10.dtd">
<svg version="1.0" xmlns="http://www.w3.org/2000/svg"
 width="204.000000pt" height="204.000000pt" viewBox="0 0 204.000000 204.000000"
 preserveAspectRatio="xMidYMid meet">

<g transform="translate(0.000000,204.000000) scale(0.100000,-0.100000)"
fill="#000000" stroke="none">
<path d="M854 2016 c-228 -44 -390 -129 -549 -290 -137 -138 -220 -285 -267
-473 -32 -125 -32 -341 0 -466 48 -192 130 -336 271 -478 142 -141 286 -223
478 -271 125 -32 341 -32 466 0 192 48 336 130 478 271 141 142 223 286 271
478 32 125 32 341 0 466 -47 188 -130 335 -267 473 -139 141 -278 222 -465
271 -118 31 -309 39 -416 19z m406 -36 c101 -25 249 -93 335 -155 186 -133
330 -345 387 -571 32 -127 32 -341 0 -468 -27 -107 -94 -254 -157 -341 -133
-186 -345 -330 -571 -387 -127 -32 -341 -32 -468 0 -107 27 -254 94 -341 157
-186 133 -330 345 -387 571 -32 127 -32 341 0 468 95 381 401 667 789 741 106
20 300 13 413 -15z"/>
<path d="M768 1605 c-75 -41 -98 -170 -51 -291 5 -14 -2 -12 -30 10 -44 34
-123 59 -157 51 -124 -31 -70 -191 85 -251 l42 -15 0 -107 c1 -59 6 -127 13
-152 6 -25 15 -95 19 -157 7 -94 12 -118 35 -157 57 -97 156 -137 247 -98 l49
20 49 -20 c91 -39 190 1 247 98 23 39 28 63 35 157 4 62 13 132 19 157 7 25
12 93 12 152 l1 106 42 16 c123 47 194 166 133 224 -13 11 -34 23 -48 27 -34
8 -113 -17 -155 -50 -19 -14 -35 -25 -35 -23 0 2 7 25 15 52 27 90 14 179 -35
227 -40 41 -75 47 -106 18 -21 -19 -24 -32 -25 -93 -1 -39 -4 -82 -8 -96 l-7
-25 -134 0 -134 0 -7 25 c-4 14 -7 57 -8 96 -1 60 -4 74 -24 92 -27 25 -42 27
-79 7z m63 -110 c3 -44 9 -92 13 -106 7 -24 3 -29 -38 -52 l-45 -25 -15 46
c-28 80 -18 152 27 200 38 40 51 26 58 -63z m437 63 c44 -48 54 -120 26 -201
l-16 -47 -41 25 c-32 19 -41 30 -39 47 1 13 5 57 8 98 3 41 7 81 9 88 7 19 29
14 53 -10z m-159 -218 c141 -26 214 -109 230 -259 7 -68 -1 -209 -14 -250 l-7
-22 -32 20 c-25 16 -35 18 -45 8 -9 -9 -3 -18 26 -43 34 -29 37 -35 41 -97 2
-36 -1 -81 -8 -102 -24 -72 -100 -135 -163 -135 -13 0 -45 11 -71 25 l-46 24
-46 -24 c-51 -27 -78 -31 -121 -14 -73 27 -123 109 -123 204 0 73 14 102 60
129 31 19 52 21 180 21 145 0 173 5 164 28 -3 9 -47 12 -162 12 -153 0 -158
-1 -204 -28 -47 -27 -47 -27 -53 -6 -14 42 -21 182 -13 253 9 90 48 168 103
207 72 51 191 71 304 49z m-516 -11 c21 -6 56 -26 77 -45 l38 -35 -20 -49
c-19 -45 -23 -49 -47 -44 -95 23 -179 141 -123 173 22 13 29 13 75 0z m928 1
c59 -32 -26 -151 -124 -174 -24 -6 -29 -3 -37 21 -6 16 -15 36 -21 47 -9 16
-5 24 23 53 31 31 93 61 126 63 7 0 22 -5 33 -10z"/>
<path d="M814 1056 c-8 -22 3 -49 19 -43 6 2 12 14 12 27 0 27 -22 39 -31 16z"/>
<path d="M1194 1056 c-8 -22 3 -49 19 -43 6 2 12 14 12 27 0 27 -22 39 -31 16z"/>
<path d="M1169 859 c-11 -6 -11 -11 -2 -20 12 -12 43 -6 43 10 0 14 -25 20
-41 10z"/>
<path d="M870 753 c-76 -27 -58 -143 21 -143 55 0 92 87 52 122 -22 19 -53 28
-73 21z m38 -42 c8 -4 12 -19 10 -32 -2 -18 -9 -24 -28 -24 -19 0 -26 6 -28
24 -3 20 11 41 28 41 3 0 11 -4 18 -9z"/>
<path d="M1130 753 c-76 -27 -58 -143 21 -143 55 0 92 87 52 122 -22 19 -53
28 -73 21z m38 -42 c8 -4 12 -19 10 -32 -2 -18 -9 -24 -28 -24 -19 0 -26 6
-28 24 -3 20 11 41 28 41 3 0 11 -4 18 -9z"/>
</g>
</svg>
