<svg viewBox="0 0 512 512" xmlns="http://www.w3.org/2000/svg"><path d="m304.199219 329.367188h-33.199219v-33.199219c0-8.285157-6.714844-15-15-15s-15 6.714843-15 15v33.199219h-33.199219c-8.285156 0-15 6.714843-15 15 0 8.285156 6.714844 15 15 15h33.199219v33.199218c0 8.285156 6.714844 15 15 15s15-6.714844 15-15v-33.199218h33.199219c8.285156 0 15-6.714844 15-15 0-8.285157-6.714844-15-15-15zm0 0"/><path d="m186.375 158.53125c17.457031 0 34.253906-9.046875 46.085938-24.820312 11.035156-14.71875 17.113281-34.054688 17.113281-54.445313s-6.078125-39.726563-17.113281-54.441406c-11.832032-15.777344-28.628907-24.824219-46.085938-24.824219-17.453125 0-34.25 9.046875-46.082031 24.824219-11.039063 14.71875-17.117188 34.054687-17.117188 54.441406 0 20.390625 6.078125 39.726563 17.117188 54.445313 11.832031 15.773437 28.628906 24.820312 46.082031 24.820312zm0-128.53125c17.996094 0 33.199219 22.5625 33.199219 49.265625 0 26.707031-15.203125 49.269531-33.199219 49.269531s-33.199219-22.5625-33.199219-49.269531c0-26.703125 15.203125-49.265625 33.199219-49.265625zm0 0"/><path d="m325.621094 158.53125c17.457031 0 34.25-9.046875 46.082031-24.820312 11.039063-14.71875 17.117187-34.054688 17.117187-54.445313 0-20.386719-6.078124-39.722656-17.117187-54.441406-11.832031-15.777344-28.625-24.824219-46.082031-24.824219-17.453125 0-34.25 9.046875-46.082032 24.824219-11.035156 14.71875-17.117187 34.054687-17.117187 54.441406 0 20.390625 6.082031 39.726563 17.117187 54.445313 11.832032 15.773437 28.628907 24.820312 46.082032 24.820312zm0-128.53125c17.996094 0 33.199218 22.5625 33.199218 49.265625 0 26.707031-15.203124 49.269531-33.199218 49.269531-17.992188 0-33.199219-22.5625-33.199219-49.269531 0-26.703125 15.207031-49.265625 33.199219-49.265625zm0 0"/><path d="m497.234375 91.308594c-10.335937-13.78125-25.0625-21.6875-40.402344-21.6875-15.339843 0-30.0625 7.90625-40.402343 21.6875-9.519532 12.695312-14.765626 29.339844-14.765626 46.871094 0 17.527343 5.246094 34.171874 14.765626 46.867187 10.339843 13.78125 25.0625 21.6875 40.402343 21.6875 15.34375 0 30.066407-7.90625 40.402344-21.6875 9.523437-12.695313 14.765625-29.339844 14.765625-46.867187 0-17.53125-5.242188-34.175782-14.765625-46.871094zm-40.402344 85.425781c-13.640625 0-25.167969-17.65625-25.167969-38.558594 0-20.898437 11.527344-38.554687 25.167969-38.554687 13.644531 0 25.167969 17.65625 25.167969 38.558594 0 20.898437-11.523438 38.554687-25.167969 38.554687zm0 0"/><path d="m95.570312 185.046875c9.519532-12.695313 14.761719-29.339844 14.761719-46.867187 0-17.53125-5.242187-34.175782-14.761719-46.871094-10.335937-13.78125-25.0625-21.6875-40.40625-21.6875-15.339843 0-30.0625 7.90625-40.398437 21.6875-9.523437 12.695312-14.765625 29.339844-14.765625 46.871094 0 17.527343 5.242188 34.171874 14.765625 46.867187 10.335937 13.78125 25.0625 21.6875 40.398437 21.6875 15.34375 0 30.070313-7.90625 40.40625-21.6875zm-65.570312-46.867187c0-20.902344 11.523438-38.558594 25.164062-38.558594 13.644532 0 25.167969 17.65625 25.167969 38.558594 0 20.898437-11.523437 38.554687-25.167969 38.554687-13.640624 0-25.164062-17.65625-25.164062-38.554687zm0 0"/><path d="m256 200.972656c-58.054688 0-112.632812 22.605469-153.683594 63.65625-41.050781 41.050782-63.65625 95.628906-63.65625 153.683594 0 18.253906 5.277344 35.96875 15.261719 51.226562 17.390625 26.589844 46.710937 42.460938 78.425781 42.460938 26.066406 0 46.414063-6.027344 66.089844-11.859375 18.4375-5.460937 35.851562-10.621094 57.5625-10.621094 21.714844 0 39.128906 5.160157 57.5625 10.621094 19.675781 5.832031 40.023438 11.859375 66.085938 11.859375 31.71875 0 61.042968-15.875 78.441406-42.46875 9.976562-15.25 15.25-32.960938 15.25-51.21875 0-58.054688-22.609375-112.632812-63.65625-153.683594-41.050782-41.050781-95.628906-63.65625-153.683594-63.65625zm176.984375 252.136719c-11.835937 18.089844-31.773437 28.890625-53.335937 28.890625-21.710938 0-39.125-5.160156-57.5625-10.621094-19.675782-5.832031-40.023438-11.859375-66.085938-11.859375s-46.40625 6.027344-66.085938 11.859375c-18.4375 5.460938-35.851562 10.621094-57.566406 10.621094-21.554687 0-41.488281-10.796875-53.320312-28.886719-6.78125-10.363281-10.367188-22.398437-10.367188-34.800781 0-103.300781 84.039063-187.339844 187.339844-187.339844s187.339844 84.039063 187.339844 187.339844c0 12.40625-3.582032 24.441406-10.355469 34.796875zm0 0"/></svg>